<svg width="126" height="55" viewBox="0 0 126 55" fill="none" xmlns="http://www.w3.org/2000/svg">
<path d="M37.1829 10.0354C33.1027 22.8392 13.1448 21.9577 9.54785 9.23779" stroke="#3A00E5" stroke-width="2.68432" stroke-miterlimit="10"/>
<path d="M33.291 31.3193C33.2943 33.4929 32.8461 35.6415 31.9773 37.6174C31.1085 39.5933 29.8396 41.3497 28.2579 42.7658C27.5127 41.8982 26.6004 41.2042 25.5805 40.7291C24.5606 40.254 23.4561 40.0084 22.339 40.0084C21.222 40.0084 20.1174 40.254 19.0976 40.7291C18.0777 41.2042 17.1653 41.8982 16.4201 42.7658C13.7866 39.97 12.3011 36.2148 12.2786 32.2964C12.256 28.3779 13.6982 24.6044 16.2993 21.7759C18.4619 20.597 20.8748 20.0059 23.3147 20.0573C25.7545 20.1086 28.1426 20.8008 30.2578 22.0698C32.2283 24.7149 33.2958 27.97 33.291 31.3193Z" stroke="#3A00E5" stroke-width="2.68432" stroke-miterlimit="10"/>
<path d="M33.2906 31.3191C33.2938 33.4927 32.8456 35.6413 31.9768 37.6172C31.108 39.5931 29.8392 41.3495 28.2575 42.7656C27.5122 41.898 26.5999 41.204 25.58 40.7288C24.5601 40.2537 23.4556 40.0081 22.3386 40.0081C21.2215 40.0081 20.117 40.2537 19.0971 40.7288C18.0772 41.204 17.1649 41.898 16.4196 42.7656C14.9023 41.1513 13.7518 39.2024 13.0533 37.0628C12.3547 34.9231 12.1258 32.6472 12.3834 30.403C12.641 28.1588 13.3786 26.0035 14.5418 24.0962C15.705 22.1889 17.264 20.5781 19.104 19.3828C20.521 19.8368 21.9971 20.0587 23.4794 20.0405C24.9124 20.0449 26.3378 19.8232 27.7072 19.3828C28.672 20.1508 29.5341 21.0496 30.2707 22.0555C32.2393 24.7063 33.3021 27.9666 33.2906 31.3191Z" stroke="#3A00E5" stroke-width="2.68432" stroke-miterlimit="10"/>
<path d="M30.3111 48.1813C27.8683 49.6678 25.0611 50.3752 22.2368 50.216C19.4125 50.0568 16.6948 49.0381 14.4199 47.2857C14.478 46.781 14.5859 46.2839 14.742 45.8024C15.2828 44.0311 16.3774 42.4998 17.851 41.4534C19.3246 40.4069 21.0922 39.9057 22.8711 40.0298C24.6501 40.1539 26.3378 40.8961 27.6646 42.1378C28.9914 43.3796 29.8807 45.0492 30.1903 46.8799C30.2716 47.3085 30.3121 47.7444 30.3111 48.1813Z" stroke="#3A00E5" stroke-width="2.68432" stroke-miterlimit="10"/>
<path d="M33.2906 31.3191C33.2938 33.4927 32.8456 35.6413 31.9768 37.6172C31.108 39.5931 29.8392 41.3495 28.2575 42.7656C27.5122 41.898 26.5999 41.204 25.58 40.7288C24.5601 40.2537 23.4556 40.0081 22.3386 40.0081C21.2215 40.0081 20.117 40.2537 19.0971 40.7288C18.0772 41.204 17.1649 41.898 16.4196 42.7656C14.9023 41.1513 13.7518 39.2024 13.0533 37.0628C12.3547 34.9231 12.1258 32.6472 12.3834 30.403C12.641 28.1588 13.3786 26.0035 14.5418 24.0962C15.705 22.1889 17.264 20.5781 19.104 19.3828C20.521 19.8368 21.9971 20.0587 23.4794 20.0405C24.9124 20.0449 26.3378 19.8232 27.7072 19.3828C28.672 20.1508 29.5341 21.0496 30.2707 22.0555C32.2393 24.7063 33.3021 27.9666 33.2906 31.3191Z" stroke="#3A00E5" stroke-width="2.68432" stroke-miterlimit="10"/>
<path d="M44.5914 19.2144C44.5879 21.3979 43.7534 23.4907 42.2713 25.0334C40.7891 26.5761 38.7804 27.4425 36.6861 27.4425C35.7465 27.4451 34.8142 27.2696 33.9347 26.9247C33.928 26.8129 33.928 26.7007 33.9347 26.5889C33.9372 25.2608 34.2476 23.953 34.8392 22.7769C35.4309 21.6008 36.2865 20.5912 37.333 19.834C38.3795 19.0768 39.586 18.5945 40.8498 18.4282C42.1136 18.2618 43.3972 18.4164 44.5914 18.8786C44.5981 18.9904 44.5981 19.1026 44.5914 19.2144Z" stroke="#3A00E5" stroke-width="2.68432" stroke-miterlimit="10"/>
<path d="M2.00501 19.2144C2.00857 21.3979 2.84302 23.4907 4.32516 25.0334C5.80731 26.5761 7.81603 27.4425 9.91032 27.4425C10.85 27.4451 11.7822 27.2696 12.6617 26.9247C12.6684 26.8129 12.6684 26.7007 12.6617 26.5889C12.6592 25.2608 12.3489 23.953 11.7572 22.7769C11.1655 21.6008 10.31 20.5912 9.26346 19.834C8.21694 19.0768 7.01042 18.5945 5.74662 18.4282C4.48283 18.2618 3.19919 18.4164 2.00501 18.8786C1.99833 18.9904 1.99833 19.1026 2.00501 19.2144Z" stroke="#3A00E5" stroke-width="2.68432" stroke-miterlimit="10"/>
<path d="M49.6244 37.1915C47.808 37.1915 46.3304 36.5631 45.1915 35.3064L46.5758 33.2887C47.4889 34.2018 48.5198 34.6584 49.6686 34.6584C50.0122 34.6584 50.3018 34.5896 50.5375 34.4522C50.7731 34.3049 50.8909 34.1085 50.8909 33.8631C50.8909 33.5194 50.5964 33.2396 50.0073 33.0236L49.0353 32.6996C48.3382 32.4443 47.8767 32.2578 47.6509 32.14C46.4531 31.5018 45.8542 30.5592 45.8542 29.3123C45.8542 28.3501 46.2322 27.55 46.9882 26.9118C47.7442 26.2736 48.7162 25.9545 49.9042 25.9545C51.3868 25.9545 52.6779 26.411 53.7775 27.3241L52.4962 29.4154C52.1722 29.1503 51.7697 28.9343 51.2886 28.7674C50.8075 28.6005 50.3608 28.517 49.9484 28.517C49.5851 28.517 49.3004 28.5858 49.0942 28.7232C48.888 28.8509 48.7849 29.0178 48.7849 29.224C48.7849 29.5381 49.0746 29.8081 49.6538 30.034L50.6111 30.3874C51.1413 30.574 51.5586 30.7311 51.8629 30.8587C53.2473 31.4478 53.9395 32.4002 53.9395 33.7158C53.9395 34.7173 53.5468 35.5518 52.7613 36.2195C51.9857 36.8675 50.94 37.1915 49.6244 37.1915ZM72.6843 28.6349C73.6269 28.6349 74.4221 28.9294 75.0701 29.5185C75.728 30.088 76.0569 30.9274 76.0569 32.0369V37H73.4501V32.5523C73.4501 32.0614 73.3225 31.6834 73.0672 31.4183C72.8218 31.1532 72.4978 31.0207 72.0952 31.0207C71.6436 31.0207 71.2754 31.168 70.9907 31.4625C70.7158 31.7472 70.5783 32.14 70.5783 32.6407V37H67.9863V32.5523C67.9863 32.0811 67.8586 31.708 67.6034 31.4331C67.3481 31.1582 67.0094 31.0207 66.5872 31.0207C66.1552 31.0207 65.8017 31.168 65.5268 31.4625C65.2519 31.7472 65.1145 32.14 65.1145 32.6407V37H62.5224V28.8705H65.0555V30.0045C65.2814 29.5823 65.625 29.2485 66.0865 29.003C66.5577 28.7478 67.0536 28.625 67.5739 28.6349C68.6637 28.6447 69.4148 29.0963 69.8272 29.9898C70.1218 29.5578 70.5243 29.224 71.0348 28.9883C71.5454 28.7527 72.0952 28.6349 72.6843 28.6349ZM82.5279 28.6643C83.6865 28.6643 84.6389 29.0767 85.385 29.9014C86.1312 30.7065 86.5043 31.7129 86.5043 32.9205C86.5043 34.1085 86.1263 35.1247 85.3703 35.9691C84.6241 36.7938 83.6816 37.2062 82.5427 37.2062C81.6394 37.2062 80.8687 36.9116 80.2305 36.3225V40.3431H77.6237V28.8705H80.1863V29.6216C80.8245 28.9834 81.605 28.6643 82.5279 28.6643ZM83.8534 32.95C83.8534 32.4198 83.6816 31.978 83.3379 31.6245C82.9943 31.2612 82.5574 31.0796 82.0272 31.0796C81.497 31.0796 81.0552 31.2612 80.7017 31.6245C80.3581 31.978 80.1863 32.4198 80.1863 32.95C80.1863 33.4605 80.3581 33.9023 80.7017 34.2754C81.0552 34.6387 81.497 34.8204 82.0272 34.8204C82.5672 34.8204 83.0041 34.6387 83.3379 34.2754C83.6816 33.9023 83.8534 33.4605 83.8534 32.95ZM95.9218 32.7291C95.9218 33.0629 95.8923 33.4114 95.8334 33.7747H90.0308C90.3254 34.6289 90.9881 35.056 92.019 35.056C92.9027 35.056 93.7225 34.8056 94.4785 34.3049L95.4947 36.0574C94.4539 36.8036 93.2561 37.1767 91.9012 37.1767C90.4677 37.1767 89.3583 36.7693 88.5728 35.9544C87.7972 35.1394 87.4094 34.1331 87.4094 32.9353C87.4094 31.708 87.8119 30.6918 88.617 29.8867C89.4319 29.0718 90.4776 28.6643 91.7539 28.6643C92.9616 28.6643 93.9581 29.0276 94.7436 29.7541C95.529 30.4807 95.9218 31.4723 95.9218 32.7291ZM91.7539 30.7409C90.8605 30.7409 90.2763 31.1582 90.0014 31.9927H93.4476C93.3396 31.6 93.1383 31.2956 92.8438 31.0796C92.5492 30.8538 92.1859 30.7409 91.7539 30.7409ZM102.972 29.5038V25.763H105.578V37H103.045V36.2931C102.437 36.9018 101.681 37.2062 100.777 37.2062C99.6286 37.2062 98.6811 36.8036 97.9349 35.9985C97.1789 35.1836 96.8009 34.1625 96.8009 32.9353C96.8009 31.7178 97.1789 30.7016 97.9349 29.8867C98.7007 29.0718 99.6482 28.6643 100.777 28.6643C101.651 28.6643 102.383 28.9441 102.972 29.5038ZM99.8937 34.2902C100.247 34.6534 100.689 34.8351 101.219 34.8351C101.749 34.8351 102.191 34.6534 102.545 34.2902C102.898 33.9171 103.075 33.4605 103.075 32.9205C103.075 32.3903 102.898 31.9436 102.545 31.5803C102.191 31.2171 101.749 31.0354 101.219 31.0354C100.689 31.0354 100.247 31.222 99.8937 31.5951C99.5402 31.9583 99.3635 32.4002 99.3635 32.9205C99.3635 33.4605 99.5402 33.9171 99.8937 34.2902ZM113.217 29.6069V28.8705H115.661V37H113.217V36.2931C112.549 36.9018 111.749 37.2062 110.816 37.2062C109.667 37.2062 108.715 36.7938 107.959 35.9691C107.213 35.1542 106.84 34.1331 106.84 32.9058C106.84 31.6687 107.213 30.6574 107.959 29.872C108.705 29.0669 109.658 28.6643 110.816 28.6643C111.759 28.6643 112.559 28.9785 113.217 29.6069ZM113.187 32.9205C113.187 32.4002 113.006 31.9583 112.642 31.5951C112.269 31.222 111.822 31.0354 111.302 31.0354C110.762 31.0354 110.315 31.222 109.962 31.5951C109.608 31.9583 109.432 32.4002 109.432 32.9205C109.432 33.4605 109.608 33.9122 109.962 34.2754C110.335 34.6485 110.782 34.8351 111.302 34.8351C111.822 34.8351 112.269 34.6485 112.642 34.2754C113.006 33.9122 113.187 33.4605 113.187 32.9205ZM125.772 37H122.68L120.279 33.7747L119.896 34.1282V37H117.304V25.763H119.896V31.2269L122.341 28.8705H125.507L122.017 32.14L125.772 37Z" fill="#3A00E5"/>
<path d="M45.1915 35.3064L44.2435 34.6559L43.7294 35.4051L44.3396 36.0784L45.1915 35.3064ZM46.5758 33.2887L47.3888 32.4758L46.4105 31.4975L45.6278 32.6383L46.5758 33.2887ZM50.5375 34.4522L51.1168 35.4452L51.1319 35.4364L51.1468 35.4271L50.5375 34.4522ZM50.0073 33.0236L50.4031 31.9442L50.3871 31.9383L50.3709 31.9329L50.0073 33.0236ZM49.0353 32.6996L48.64 33.7792L48.6558 33.785L48.6717 33.7903L49.0353 32.6996ZM47.6509 32.14L47.1103 33.1547L47.1191 33.1593L47.6509 32.14ZM46.9882 26.9118L46.2466 26.0333H46.2466L46.9882 26.9118ZM53.7775 27.3241L54.7578 27.9247L55.278 27.0757L54.512 26.4396L53.7775 27.3241ZM52.4962 29.4154L51.7682 30.3052L52.7881 31.1397L53.4765 30.016L52.4962 29.4154ZM51.2886 28.7674L50.9117 29.8536H50.9117L51.2886 28.7674ZM49.0942 28.7232L49.6993 29.7008L49.7158 29.6906L49.7319 29.6798L49.0942 28.7232ZM49.6538 30.034L49.2363 31.1051L49.2459 31.1089L49.2556 31.1125L49.6538 30.034ZM50.6111 30.3874L50.2129 31.4659L50.2212 31.469L50.2295 31.4719L50.6111 30.3874ZM51.8629 30.8587L52.3131 29.8008L52.3076 29.7985L51.8629 30.8587ZM52.7613 36.2194L53.4984 37.1018L53.5059 37.0954L52.7613 36.2194ZM49.6244 36.0418C48.1067 36.0418 46.9475 35.532 46.0434 34.5343L44.3396 36.0784C45.7132 37.5941 47.5094 38.3411 49.6244 38.3411V36.0418ZM46.1394 35.9568L47.5238 33.9392L45.6278 32.6383L44.2435 34.6559L46.1394 35.9568ZM45.7629 34.1017C46.8624 35.2011 48.1759 35.808 49.6686 35.808V33.5087C48.8637 33.5087 48.1155 33.2025 47.3888 32.4758L45.7629 34.1017ZM49.6686 35.808C50.1636 35.808 50.6652 35.7087 51.1168 35.4452L49.9582 33.4591C49.9385 33.4706 49.8608 33.5087 49.6686 33.5087V35.808ZM51.1468 35.4271C51.666 35.1026 52.0406 34.5632 52.0406 33.8631H49.7413C49.7413 33.793 49.7607 33.6963 49.8167 33.6029C49.8692 33.5155 49.9244 33.4796 49.9282 33.4772L51.1468 35.4271ZM52.0406 33.8631C52.0406 32.7173 51.0431 32.1789 50.4031 31.9442L49.6115 34.103C49.7142 34.1407 49.7852 34.1743 49.8313 34.2002C49.8781 34.2265 49.8882 34.2385 49.8782 34.229C49.8668 34.2182 49.8299 34.1796 49.7962 34.1084C49.7607 34.0333 49.7413 33.9476 49.7413 33.8631H52.0406ZM50.3709 31.9329L49.3989 31.6089L48.6717 33.7903L49.6437 34.1143L50.3709 31.9329ZM49.4306 31.62C48.7232 31.361 48.3317 31.1984 48.1827 31.1207L47.1191 33.1593C47.4218 33.3172 47.9532 33.5277 48.64 33.7792L49.4306 31.62ZM48.1915 31.1253C47.7303 30.8796 47.446 30.609 47.2737 30.3378C47.1047 30.0719 47.0039 29.7437 47.0039 29.3123H44.7045C44.7045 30.1279 44.9031 30.8944 45.333 31.571C45.7597 32.2424 46.3738 32.7622 47.1103 33.1546L48.1915 31.1253ZM47.0039 29.3123C47.0039 28.6996 47.2242 28.2171 47.7298 27.7903L46.2466 26.0333C45.2402 26.8828 44.7045 28.0006 44.7045 29.3123H47.0039ZM47.7298 27.7903C48.2387 27.3607 48.9308 27.1042 49.9042 27.1042V24.8048C48.5016 24.8048 47.2497 25.1865 46.2466 26.0333L47.7298 27.7903ZM49.9042 27.1042C51.1294 27.1042 52.158 27.4737 53.043 28.2086L54.512 26.4396C53.1977 25.3484 51.6442 24.8048 49.9042 24.8048V27.1042ZM52.7972 26.7235L51.5159 28.8148L53.4765 30.016L54.7578 27.9247L52.7972 26.7235ZM53.2242 28.5256C52.7757 28.1587 52.2474 27.8832 51.6654 27.6812L50.9117 29.8536C51.2919 29.9855 51.5687 30.142 51.7682 30.3052L53.2242 28.5256ZM51.6654 27.6812C51.0905 27.4818 50.5151 27.3674 49.9484 27.3674V29.6667C50.2064 29.6667 50.5245 29.7192 50.9117 29.8536L51.6654 27.6812ZM49.9484 27.3674C49.4583 27.3674 48.9205 27.4573 48.4565 27.7666L49.7319 29.6798C49.7044 29.6982 49.6976 29.6945 49.7321 29.6862C49.7681 29.6775 49.8369 29.6667 49.9484 29.6667V27.3674ZM48.4891 27.7457C48.0143 28.0396 47.6353 28.5438 47.6353 29.224H49.9346C49.9346 29.3229 49.9068 29.4407 49.8404 29.5483C49.7787 29.6481 49.7128 29.6924 49.6993 29.7008L48.4891 27.7457ZM47.6353 29.224C47.6353 29.7788 47.9048 30.2109 48.2182 30.503C48.5126 30.7775 48.8796 30.9661 49.2363 31.1051L50.0714 28.9628C49.967 28.9221 49.8931 28.8861 49.8435 28.8578C49.7929 28.8289 49.7791 28.8146 49.7861 28.8211C49.7939 28.8284 49.8324 28.8662 49.8693 28.9406C49.9087 29.0202 49.9346 29.1186 49.9346 29.224H47.6353ZM49.2556 31.1125L50.2129 31.4659L51.0093 29.3089L50.0521 28.9555L49.2556 31.1125ZM50.2295 31.4719C50.751 31.6554 51.1441 31.8039 51.4183 31.9189L52.3076 29.7985C51.973 29.6582 51.5316 29.4925 50.9927 29.3029L50.2295 31.4719ZM51.4128 31.9166C51.9658 32.1519 52.2963 32.4237 52.4904 32.6907C52.6771 32.9476 52.7898 33.271 52.7898 33.7158H55.0892C55.0892 32.845 54.8558 32.0344 54.3504 31.3389C53.8522 30.6535 53.1445 30.1546 52.3131 29.8008L51.4128 31.9166ZM52.7898 33.7158C52.7898 34.3688 52.5539 34.8869 52.0167 35.3435L53.5059 37.0954C54.5397 36.2167 55.0892 35.0658 55.0892 33.7158H52.7898ZM52.0242 35.3372C51.5109 35.766 50.7531 36.0418 49.6244 36.0418V38.3411C51.127 38.3411 52.4605 37.9689 53.4984 37.1017L52.0242 35.3372ZM75.0701 29.5185L74.2968 30.3692L74.3071 30.3786L74.3177 30.3877L75.0701 29.5185ZM76.0569 37V38.1497H77.2066V37H76.0569ZM73.4501 37H72.3005V38.1497H73.4501V37ZM73.0672 31.4183L72.2236 32.1994L72.2313 32.2077L72.2391 32.2158L73.0672 31.4183ZM70.9907 31.4625L70.1641 30.6635L70.1636 30.664L70.9907 31.4625ZM70.5783 37V38.1497H71.728V37H70.5783ZM67.9863 37H66.8366V38.1497H67.9863V37ZM65.5268 31.4625L66.3539 32.2611L66.3607 32.2541L66.3673 32.247L65.5268 31.4625ZM65.1145 37V38.1497H66.2641V37H65.1145ZM62.5224 37H61.3728V38.1497H62.5224V37ZM62.5224 28.8705V27.7208H61.3728V28.8705H62.5224ZM65.0555 28.8705H66.2052V27.7208H65.0555V28.8705ZM65.0555 30.0045H63.9059L66.0693 30.5468L65.0555 30.0045ZM66.0865 29.003L66.6264 30.0181L66.634 30.014L66.0865 29.003ZM67.5739 28.6349L67.5522 29.7844L67.5636 29.7845L67.5739 28.6349ZM69.8272 29.9898L68.7833 30.4716L69.6338 32.3143L70.7771 30.6374L69.8272 29.9898ZM71.0348 28.9883L70.5531 27.9445L71.0348 28.9883ZM72.6843 29.7845C73.3646 29.7845 73.8774 29.9879 74.2968 30.3692L75.8435 28.6678C74.9669 27.8709 73.8891 27.4852 72.6843 27.4852V29.7845ZM74.3177 30.3877C74.6572 30.6816 74.9072 31.1625 74.9072 32.0369H77.2066C77.2066 30.6924 76.7988 29.4943 75.8226 28.6493L74.3177 30.3877ZM74.9072 32.0369V37H77.2066V32.0369H74.9072ZM76.0569 35.8503H73.4501V38.1497H76.0569V35.8503ZM74.5998 37V32.5523H72.3005V37H74.5998ZM74.5998 32.5523C74.5998 31.866 74.4182 31.1639 73.8954 30.6209L72.2391 32.2158C72.2394 32.2161 72.251 32.2265 72.2652 32.2685C72.281 32.3153 72.3005 32.4042 72.3005 32.5523H74.5998ZM73.9108 30.6372C73.4217 30.109 72.7775 29.871 72.0952 29.871V32.1704C72.1694 32.1704 72.2001 32.1823 72.2048 32.1842C72.2079 32.1854 72.2092 32.1863 72.2102 32.187C72.2113 32.1878 72.2159 32.191 72.2236 32.1994L73.9108 30.6372ZM72.0952 29.871C71.3672 29.871 70.6887 30.1207 70.1641 30.6635L71.8173 32.2616C71.862 32.2152 71.92 32.1704 72.0952 32.1704V29.871ZM70.1636 30.664C69.6307 31.2159 69.4286 31.9247 69.4286 32.6407H71.728C71.728 32.3552 71.8008 32.2786 71.8177 32.2611L70.1636 30.664ZM69.4286 32.6407V37H71.728V32.6407H69.4286ZM70.5783 35.8503H67.9863V38.1497H70.5783V35.8503ZM69.136 37V32.5523H66.8366V37H69.136ZM69.136 32.5523C69.136 31.8684 68.9457 31.189 68.4459 30.6508L66.7609 32.2154C66.7716 32.2269 66.8366 32.2937 66.8366 32.5523H69.136ZM68.4459 30.6508C67.9446 30.111 67.2848 29.871 66.5872 29.871V32.1704C66.6728 32.1704 66.7131 32.184 66.7256 32.1891C66.735 32.1929 66.7446 32.1978 66.7609 32.2154L68.4459 30.6508ZM66.5872 29.871C65.8623 29.871 65.1957 30.1324 64.6863 30.6781L66.3673 32.247C66.4078 32.2036 66.4481 32.1704 66.5872 32.1704V29.871ZM64.6997 30.664C64.1668 31.2159 63.9648 31.9247 63.9648 32.6407H66.2641C66.2641 32.3552 66.337 32.2786 66.3539 32.2611L64.6997 30.664ZM63.9648 32.6407V37H66.2641V32.6407H63.9648ZM65.1145 35.8503H62.5224V38.1497H65.1145V35.8503ZM63.6721 37V28.8705H61.3728V37H63.6721ZM62.5224 30.0202H65.0555V27.7208H62.5224V30.0202ZM63.9059 28.8705V30.0045H66.2052V28.8705H63.9059ZM66.0693 30.5468C66.1777 30.3441 66.347 30.1667 66.6264 30.0181L65.5466 27.988C64.903 28.3303 64.385 28.8205 64.0418 29.4623L66.0693 30.5468ZM66.634 30.014C66.9361 29.8503 67.2365 29.7784 67.5522 29.7843L67.5956 27.4854C66.8706 27.4717 66.1793 27.6452 65.5389 27.9921L66.634 30.014ZM67.5636 29.7845C67.9528 29.788 68.2006 29.8691 68.3622 29.9662C68.5164 30.059 68.6615 30.2075 68.7833 30.4716L70.8711 29.508C70.5806 28.8786 70.1439 28.3546 69.5471 27.9957C68.9575 27.6412 68.2849 27.4915 67.5843 27.4852L67.5636 29.7845ZM70.7771 30.6374C70.9455 30.3904 71.1803 30.1874 71.5166 30.0322L70.5531 27.9445C69.8683 28.2605 69.298 28.7251 68.8773 29.3421L70.7771 30.6374ZM71.5166 30.0322C71.8689 29.8696 72.2535 29.7845 72.6843 29.7845V27.4852C71.937 27.4852 71.2219 27.6358 70.5531 27.9445L71.5166 30.0322ZM85.385 29.9014L84.5325 30.6728L84.5418 30.6829L85.385 29.9014ZM85.3703 35.9691L86.2229 36.7404L86.2268 36.736L85.3703 35.9691ZM80.2305 36.3225L81.0103 35.4778L79.0808 33.6967V36.3225H80.2305ZM80.2305 40.3431V41.4928H81.3801V40.3431H80.2305ZM77.6237 40.3431H76.4741V41.4928H77.6237V40.3431ZM77.6237 28.8705V27.7208H76.4741V28.8705H77.6237ZM80.1863 28.8705H81.336V27.7208H80.1863V28.8705ZM80.1863 29.6216H79.0366V32.3972L80.9992 30.4345L80.1863 29.6216ZM83.3379 31.6245L82.5027 32.4146L82.5081 32.4203L82.5136 32.4259L83.3379 31.6245ZM80.7017 31.6245L79.8777 30.8228L79.8774 30.8231L80.7017 31.6245ZM80.7017 34.2754L79.8561 35.0543L79.8668 35.0659L79.8777 35.0772L80.7017 34.2754ZM83.3379 34.2754L82.4923 33.4966L82.4914 33.4975L83.3379 34.2754ZM82.5279 29.814C83.377 29.814 84.0144 30.1001 84.5325 30.6727L86.2376 29.1301C85.2633 28.0533 83.996 27.5146 82.5279 27.5146V29.814ZM84.5418 30.6829C85.0706 31.2534 85.3546 31.9712 85.3546 32.9205H87.654C87.654 31.4546 87.1919 30.1596 86.2282 29.1199L84.5418 30.6829ZM85.3546 32.9205C85.3546 33.8405 85.0713 34.5795 84.5138 35.2022L86.2268 36.736C87.1813 35.6699 87.654 34.3766 87.654 32.9205H85.3546ZM84.5178 35.1978C83.9954 35.7751 83.3656 36.0565 82.5427 36.0565V38.3559C83.9976 38.3559 85.2528 37.8126 86.2228 36.7404L84.5178 35.1978ZM82.5427 36.0565C81.9156 36.0565 81.4269 35.8623 81.0103 35.4778L79.4507 37.1673C80.3104 37.9609 81.3631 38.3559 82.5427 38.3559V36.0565ZM79.0808 36.3225V40.3431H81.3801V36.3225H79.0808ZM80.2305 39.1934H77.6237V41.4928H80.2305V39.1934ZM78.7734 40.3431V28.8705H76.4741V40.3431H78.7734ZM77.6237 30.0202H80.1863V27.7208H77.6237V30.0202ZM79.0366 28.8705V29.6216H81.336V28.8705H79.0366ZM80.9992 30.4345C81.4164 30.0174 81.9022 29.814 82.5279 29.814V27.5146C81.3078 27.5146 80.2325 27.9495 79.3733 28.8087L80.9992 30.4345ZM85.0031 32.95C85.0031 32.1454 84.7312 31.4084 84.1623 30.8231L82.5136 32.4259C82.6319 32.5476 82.7037 32.6942 82.7037 32.95H85.0031ZM84.1731 30.8345C83.5981 30.2266 82.8521 29.9299 82.0272 29.9299V32.2293C82.2627 32.2293 82.3905 32.2959 82.5027 32.4146L84.1731 30.8345ZM82.0272 29.9299C81.2026 29.9299 80.4585 30.2259 79.8777 30.8228L81.5257 32.4262C81.6519 32.2966 81.7914 32.2293 82.0272 32.2293V29.9299ZM79.8774 30.8231C79.3084 31.4084 79.0366 32.1454 79.0366 32.95H81.336C81.336 32.6942 81.4078 32.5476 81.5261 32.4259L79.8774 30.8231ZM79.0366 32.95C79.0366 33.747 79.3155 34.4674 79.8561 35.0543L81.5474 33.4966C81.4007 33.3373 81.336 33.174 81.336 32.95H79.0366ZM79.8777 35.0772C80.4585 35.6741 81.2026 35.97 82.0272 35.97V33.6707C81.7914 33.6707 81.6519 33.6033 81.5257 33.4737L79.8777 35.0772ZM82.0272 35.97C82.855 35.97 83.611 35.6774 84.1845 35.0533L82.4914 33.4975C82.3972 33.6 82.2794 33.6707 82.0272 33.6707V35.97ZM84.1836 35.0543C84.7241 34.4674 85.0031 33.747 85.0031 32.95H82.7037C82.7037 33.174 82.639 33.3373 82.4923 33.4966L84.1836 35.0543ZM95.8334 33.7747V34.9244H96.8117L96.9683 33.9587L95.8334 33.7747ZM90.0308 33.7747V32.625H88.4183L88.944 34.1495L90.0308 33.7747ZM94.4785 34.3049L95.4731 33.7282L94.861 32.6726L93.8436 33.3464L94.4785 34.3049ZM95.4947 36.0574L96.1646 36.9918L97.0128 36.3836L96.4893 35.4808L95.4947 36.0574ZM88.5728 35.9544L87.74 36.747L87.7451 36.7522L88.5728 35.9544ZM88.617 29.8867L89.4299 30.6996L88.617 29.8867ZM94.7436 29.7541L93.9629 30.5981L94.7436 29.7541ZM90.0014 31.9927L88.9094 31.633L88.4122 33.1424H90.0014V31.9927ZM93.4476 31.9927V33.1424H94.9561L94.5561 31.6879L93.4476 31.9927ZM92.8438 31.0796L92.1443 31.992L92.154 31.9995L92.1639 32.0067L92.8438 31.0796ZM94.7721 32.7291C94.7721 32.9954 94.7486 33.2821 94.6986 33.5907L96.9683 33.9587C97.036 33.5407 97.0714 33.1304 97.0714 32.7291H94.7721ZM95.8334 32.625H90.0308V34.9244H95.8334V32.625ZM88.944 34.1495C89.1624 34.7829 89.547 35.3289 90.126 35.7021C90.6922 36.0669 91.3495 36.2057 92.019 36.2057V33.9063C91.6576 33.9063 91.4681 33.8315 91.3716 33.7693C91.2878 33.7153 91.1938 33.6207 91.1177 33.3999L88.944 34.1495ZM92.019 36.2057C93.1347 36.2057 94.1743 35.8853 95.1133 35.2634L93.8436 33.3464C93.2707 33.7259 92.6707 33.9063 92.019 33.9063V36.2057ZM93.4839 34.8816L94.5001 36.6341L96.4893 35.4808L95.4731 33.7282L93.4839 34.8816ZM94.8248 35.1231C93.991 35.7209 93.0306 36.0271 91.9012 36.0271V38.3264C93.4816 38.3264 94.9168 37.8864 96.1646 36.9918L94.8248 35.1231ZM91.9012 36.0271C90.692 36.0271 89.915 35.6903 89.4006 35.1565L87.7451 36.7522C88.8015 37.8483 90.2435 38.3264 91.9012 38.3264V36.0271ZM89.4056 35.1617C88.8474 34.5753 88.559 33.859 88.559 32.9353H86.2597C86.2597 34.4072 86.7469 35.7036 87.7401 36.747L89.4056 35.1617ZM88.559 32.9353C88.559 31.9866 88.8583 31.2712 89.4299 30.6996L87.8041 29.0737C86.7655 30.1123 86.2597 31.4293 86.2597 32.9353H88.559ZM89.4299 30.6996C90.0051 30.1245 90.7465 29.814 91.7539 29.814V27.5146C90.2086 27.5146 88.8587 28.0191 87.8041 29.0737L89.4299 30.6996ZM91.7539 29.814C92.7123 29.814 93.4176 30.0938 93.9629 30.5981L95.5243 28.9102C94.4986 27.9614 93.2109 27.5146 91.7539 27.5146V29.814ZM93.9629 30.5981C94.4718 31.0688 94.7721 31.7318 94.7721 32.7291H97.0714C97.0714 31.2129 96.5863 29.8926 95.5243 28.9102L93.9629 30.5981ZM91.7539 29.5912C91.1268 29.5912 90.5078 29.7395 89.9775 30.1183C89.4455 30.4983 89.1059 31.0366 88.9094 31.633L91.0933 32.3524C91.1718 32.1143 91.2617 32.0267 91.3139 31.9894C91.3678 31.9509 91.4876 31.8906 91.7539 31.8906V29.5912ZM90.0014 33.1424H93.4476V30.843H90.0014V33.1424ZM94.5561 31.6879C94.3878 31.0758 94.0512 30.5394 93.5236 30.1525L92.1639 32.0067C92.2254 32.0518 92.2914 32.1242 92.3391 32.2975L94.5561 31.6879ZM93.5433 30.1672C93.0162 29.7632 92.3957 29.5912 91.7539 29.5912V31.8906C91.9762 31.8906 92.0822 31.9444 92.1443 31.992L93.5433 30.1672ZM102.972 29.5038L102.18 30.3373L104.121 32.1817V29.5038H102.972ZM102.972 25.763V24.6134H101.822V25.763H102.972ZM105.578 25.763H106.728V24.6134H105.578V25.763ZM105.578 37V38.1497H106.728V37H105.578ZM103.045 37H101.896V38.1497H103.045V37ZM103.045 36.2931H104.195V33.5175L102.232 35.4801L103.045 36.2931ZM97.9349 35.9985L98.7781 35.217L98.7778 35.2166L97.9349 35.9985ZM97.9349 29.8867L97.0971 29.0994L97.0921 29.1048L97.9349 29.8867ZM99.8937 34.2902L99.0591 35.0809L99.0643 35.0864L99.0697 35.0919L99.8937 34.2902ZM102.545 34.2902L103.369 35.0919L103.374 35.0864L103.379 35.0809L102.545 34.2902ZM102.545 31.5803L103.369 30.7786L102.545 31.5803ZM99.8937 31.5951L100.718 32.3968L100.723 32.3913L100.728 32.3857L99.8937 31.5951ZM104.121 29.5038V25.763H101.822V29.5038H104.121ZM102.972 26.9127H105.578V24.6134H102.972V26.9127ZM104.429 25.763V37H106.728V25.763H104.429ZM105.578 35.8503H103.045V38.1497H105.578V35.8503ZM104.195 37V36.2931H101.896V37H104.195ZM102.232 35.4801C101.851 35.8617 101.392 36.0565 100.777 36.0565V38.3559C101.969 38.3559 103.022 37.9419 103.858 37.106L102.232 35.4801ZM100.777 36.0565C99.9319 36.0565 99.2956 35.7754 98.7781 35.217L97.0917 36.7801C98.0666 37.8319 99.3253 38.3559 100.777 38.3559V36.0565ZM98.7778 35.2166C98.2402 34.6372 97.9506 33.9053 97.9506 32.9353H95.6512C95.6512 34.4198 96.1176 35.7301 97.0921 36.7804L98.7778 35.2166ZM97.9506 32.9353C97.9506 31.9778 98.2385 31.2499 98.7778 30.6686L97.0921 29.1048C96.1193 30.1533 95.6512 31.4578 95.6512 32.9353H97.9506ZM98.7727 30.674C99.3189 30.0928 99.962 29.814 100.777 29.814V27.5146C99.3344 27.5146 98.0826 28.0507 97.0971 29.0994L98.7727 30.674ZM100.777 29.814C101.381 29.814 101.821 29.9968 102.18 30.3373L103.764 28.6703C102.944 27.8914 101.921 27.5146 100.777 27.5146V29.814ZM99.0697 35.0919C99.6505 35.6888 100.395 35.9848 101.219 35.9848V33.6854C100.983 33.6854 100.844 33.6181 100.718 33.4884L99.0697 35.0919ZM101.219 35.9848C102.044 35.9848 102.788 35.6888 103.369 35.0919L101.721 33.4884C101.594 33.6181 101.455 33.6854 101.219 33.6854V35.9848ZM103.379 35.0809C103.946 34.4826 104.224 33.7382 104.224 32.9205H101.925C101.925 33.1828 101.85 33.3516 101.71 33.4995L103.379 35.0809ZM104.224 32.9205C104.224 32.1062 103.941 31.3672 103.369 30.7786L101.721 32.3821C101.855 32.52 101.925 32.6745 101.925 32.9205H104.224ZM103.369 30.7786C102.788 30.1817 102.044 29.8857 101.219 29.8857V32.1851C101.455 32.1851 101.594 32.2524 101.721 32.3821L103.369 30.7786ZM101.219 29.8857C100.385 29.8857 99.6372 30.1941 99.0591 30.8044L100.728 32.3857C100.857 32.2499 100.993 32.1851 101.219 32.1851V29.8857ZM99.0697 30.7933C98.5013 31.3775 98.2138 32.1096 98.2138 32.9205H100.513C100.513 32.6907 100.579 32.5391 100.718 32.3968L99.0697 30.7933ZM98.2138 32.9205C98.2138 33.7382 98.4922 34.4826 99.0591 35.0809L100.728 33.4995C100.588 33.3516 100.513 33.1828 100.513 32.9205H98.2138ZM113.217 29.6069L112.423 30.4382L114.366 32.295V29.6069H113.217ZM113.217 28.8705V27.7208H112.067V28.8705H113.217ZM115.661 28.8705H116.811V27.7208H115.661V28.8705ZM115.661 37V38.1497H116.811V37H115.661ZM113.217 37H112.067V38.1497H113.217V37ZM113.217 36.2931H114.366V33.689L112.442 35.4435L113.217 36.2931ZM107.959 35.9691L107.111 36.7455L107.111 36.746L107.959 35.9691ZM107.959 29.872L108.792 30.6638L108.797 30.6587L108.802 30.6535L107.959 29.872ZM112.642 31.5951L111.829 32.408V32.408L112.642 31.5951ZM109.962 31.5951L110.786 32.3968L110.791 32.3913L110.796 32.3857L109.962 31.5951ZM109.962 34.2754L109.138 35.0772L109.143 35.0828L109.149 35.0884L109.962 34.2754ZM112.642 34.2754L113.455 35.0884L112.642 34.2754ZM114.366 29.6069V28.8705H112.067V29.6069H114.366ZM113.217 30.0202H115.661V27.7208H113.217V30.0202ZM114.512 28.8705V37H116.811V28.8705H114.512ZM115.661 35.8503H113.217V38.1497H115.661V35.8503ZM114.366 37V36.2931H112.067V37H114.366ZM112.442 35.4435C111.994 35.8524 111.472 36.0565 110.816 36.0565V38.3559C112.025 38.3559 113.104 37.9512 113.991 37.1426L112.442 35.4435ZM110.816 36.0565C109.98 36.0565 109.338 35.7723 108.806 35.1922L107.111 36.746C108.092 37.8154 109.355 38.3559 110.816 38.3559V36.0565ZM108.807 35.1927C108.277 34.6138 107.989 33.8801 107.989 32.9058H105.69C105.69 34.3861 106.149 35.6945 107.111 36.7455L108.807 35.1927ZM107.989 32.9058C107.989 31.9183 108.278 31.205 108.792 30.6638L107.125 29.0801C106.147 30.1098 105.69 31.4191 105.69 32.9058H107.989ZM108.802 30.6535C109.318 30.0974 109.958 29.814 110.816 29.814V27.5146C109.357 27.5146 108.093 28.0364 107.116 29.0905L108.802 30.6535ZM110.816 29.814C111.475 29.814 111.987 30.0222 112.423 30.4382L114.011 28.7755C113.131 27.9348 112.043 27.5146 110.816 27.5146V29.814ZM114.337 32.9205C114.337 32.0997 114.037 31.3641 113.455 30.7821L111.829 32.408C111.974 32.5526 112.037 32.7007 112.037 32.9205H114.337ZM113.455 30.7821C112.87 30.1968 112.132 29.8857 111.302 29.8857V32.1851C111.513 32.1851 111.668 32.2471 111.829 32.408L113.455 30.7821ZM111.302 29.8857C110.464 29.8857 109.71 30.1894 109.127 30.8044L110.796 32.3857C110.921 32.2546 111.06 32.1851 111.302 32.1851V29.8857ZM109.138 30.7933C108.569 31.3775 108.282 32.1096 108.282 32.9205H110.581C110.581 32.6907 110.647 32.5391 110.786 32.3968L109.138 30.7933ZM108.282 32.9205C108.282 33.7384 108.561 34.4843 109.138 35.0772L110.786 33.4737C110.656 33.3401 110.581 33.1827 110.581 32.9205H108.282ZM109.149 35.0884C109.734 35.6737 110.472 35.9848 111.302 35.9848V33.6854C111.091 33.6854 110.936 33.6234 110.775 33.4625L109.149 35.0884ZM111.302 35.9848C112.132 35.9848 112.87 35.6737 113.455 35.0884L111.829 33.4625C111.668 33.6234 111.513 33.6854 111.302 33.6854V35.9848ZM113.455 35.0884C114.046 34.4975 114.337 33.7481 114.337 32.9205H112.037C112.037 33.1729 111.965 33.3268 111.829 33.4625L113.455 35.0884ZM125.772 37V38.1497H128.114L126.682 36.297L125.772 37ZM122.68 37L121.757 37.6864L122.102 38.1497H122.68V37ZM120.279 33.7747L121.201 33.0883L120.438 32.0631L119.499 32.9299L120.279 33.7747ZM119.896 34.1282L119.116 33.2834L118.746 33.6248V34.1282H119.896ZM119.896 37V38.1497H121.046V37H119.896ZM117.304 37H116.154V38.1497H117.304V37ZM117.304 25.763V24.6134H116.154V25.763H117.304ZM119.896 25.763H121.046V24.6134H119.896V25.763ZM119.896 31.2269H118.746V33.9318L120.694 32.0546L119.896 31.2269ZM122.341 28.8705V27.7208H121.877L121.543 28.0427L122.341 28.8705ZM125.507 28.8705L126.293 29.7096L128.416 27.7208H125.507V28.8705ZM122.017 32.14L121.231 31.3009L120.468 32.0157L121.107 32.8429L122.017 32.14ZM125.772 35.8503H122.68V38.1497H125.772V35.8503ZM123.602 36.3136L121.201 33.0883L119.357 34.4611L121.757 37.6864L123.602 36.3136ZM119.499 32.9299L119.116 33.2834L120.676 34.973L121.059 34.6195L119.499 32.9299ZM118.746 34.1282V37H121.046V34.1282H118.746ZM119.896 35.8503H117.304V38.1497H119.896V35.8503ZM118.454 37V25.763H116.154V37H118.454ZM117.304 26.9127H119.896V24.6134H117.304V26.9127ZM118.746 25.763V31.2269H121.046V25.763H118.746ZM120.694 32.0546L123.139 29.6983L121.543 28.0427L119.098 30.3991L120.694 32.0546ZM122.341 30.0202H125.507V27.7208H122.341V30.0202ZM124.721 28.0314L121.231 31.3009L122.803 32.979L126.293 29.7096L124.721 28.0314ZM121.107 32.8429L124.863 37.703L126.682 36.297L122.927 31.437L121.107 32.8429Z" fill="#3A00E5"/>
<g clip-path="url(#clip0_145_742)">
<path opacity="0.992" fill-rule="evenodd" clip-rule="evenodd" d="M56.0931 29.1045C57.4783 29.1045 58.8635 29.1045 60.2487 29.1045C60.7994 29.2829 60.9462 29.5746 60.6892 29.9795C60.544 30.1192 60.3521 30.1963 60.1132 30.2107C60.1578 30.525 60.2444 30.8332 60.373 31.1352C60.5926 31.5289 60.8034 31.9251 61.0053 32.3239C61.1076 32.5829 61.1678 32.8471 61.186 33.1164C61.2011 34.3601 61.2011 35.6039 61.186 36.8476C61.0843 37.217 60.7869 37.4537 60.2939 37.5575C58.8786 37.5575 57.4633 37.5575 56.0479 37.5575C55.5549 37.4537 55.2576 37.217 55.1558 36.8476C55.1408 35.6039 55.1408 34.3601 55.1558 33.1164C55.1755 32.8472 55.2357 32.5831 55.3365 32.3239C55.5384 31.9251 55.7492 31.5289 55.9689 31.1352C56.0974 30.8332 56.184 30.525 56.2286 30.2107C55.7111 30.1431 55.4815 29.9174 55.5398 29.5337C55.6136 29.312 55.798 29.1689 56.0931 29.1045ZM57.0191 30.2107C57.787 30.2107 58.5549 30.2107 59.3228 30.2107C59.3849 30.6387 59.5091 31.0569 59.6954 31.4654C59.878 31.7613 60.0474 32.0613 60.2036 32.3652C59.8226 32.5827 59.3898 32.7065 58.9049 32.7367C58.7154 32.7318 58.531 32.707 58.3516 32.6624C58.0116 32.5271 57.6653 32.4005 57.3127 32.2826C56.9499 32.2048 56.581 32.1772 56.206 32.2001C56.6525 31.5759 56.9235 30.9127 57.0191 30.2107Z" fill="#3A00E5"/>
</g>
<defs>
<clipPath id="clip0_145_742">
<rect width="11.5635" height="8.45305" fill="white" transform="translate(52.4004 29.1128)"/>
</clipPath>
</defs>
</svg>
